<svg width="64" height="63"  xmlns="http://www.w3.org/2000/svg" id="Calque_1" data-name="Calque 1" viewBox="0 0 64.17 63">
    <defs>
        <style>
            .cls-1{fill:#fff;}.cls-2{fill:#1e1e1c;}.cls-3{fill:#13baee;}
        </style>
    </defs>
    <title>
        polytech
    </title>
    <polygon points="5.19 43.02 4.45 43.02 4.45 46.53 1.72 46.53 1.72 43.02 0.98 43.02 0.98 47.22 5.19 47.22 5.19 43.02"/>
    <polygon points="11.86 47.22 12.61 47.22 12.61 43.02 8.38 43.02 8.38 47.22 9.11 47.22 9.11 43.71 11.86 43.71 11.86 47.22"/>
    <rect width="0.73" height="0.6" x="15.77" y="41.8"/>
    <rect width="0.73" height="4.21" x="15.77" y="43.01"/>
    <path d="M22.71,43s-1,3.32-1,3.5H21L20,43h-.74l1.13,4.2h1.95L23.45,43Z"/>
    <path d="M29.71,46.51H27v-1h3.45V43H26.24v4.2h3.47ZM27,43.72h2.71v1H27Z"/>
    <polygon points="35.89 43.02 33.25 43.02 33.25 47.22 33.99 47.22 33.99 43.71 35.89 43.71 35.89 43.02"/>
    <polygon points="39.34 43.71 42.09 43.71 42.09 43.01 38.58 43.01 38.58 45.48 40.3 45.48 42.03 45.48 42.03 46.52 38.58 46.52 38.58 47.22 42.79 47.22 42.79 44.75 39.34 44.75 39.34 43.71"/>
    <rect width="0.73" height="4.21" x="45.98" y="43.01"/>
    <rect width="0.73" height="0.6" x="45.98" y="41.8"/>
    <polygon points="50.75 43.71 52.15 43.71 52.15 43.01 50.75 43.01 50.75 41.8 50.01 41.8 50.01 44.52 50.01 47.23 52.78 47.23 52.78 46.51 50.75 46.51 50.75 43.71"/>
    <path d="M59.46,46.51H56.75v-1H60.2V43H58.37l.85-1.23h-.74s-.7.84-.94,1.23H56v4.2h3.47Zm-2.71-2.79h2.71v1H56.75Z"/>
    <path d="M7.06,57.21V53.59c0-2.07-.77-3-3.18-3-1.58,0-3.52.56-3.52,1.87a1,1,0,0,0,1.1.93c1.74,0,.44-2.18,2.34-2.18,1.32,0,1.32,1.38,1.32,2.36v.91C3.93,54.56,0,54.72,0,57.27a2.34,2.34,0,0,0,2.51,2.07,3.52,3.52,0,0,0,2.63-1.23,1.34,1.34,0,0,0,1.52,1.23,6.28,6.28,0,0,0,2-.32v-.46a2.89,2.89,0,0,1-.74.16C7.29,58.72,7.06,58.33,7.06,57.21Zm-1.94-1c0,1.33-.73,2.08-1.82,2.08A1.18,1.18,0,0,1,2.09,57c0-1.71,2.3-1.82,3-1.83Z"/>
    <path d="M19.55,57.18V53c0-1.38-.36-2.42-2.32-2.42a3.69,3.69,0,0,0-3.15,2.15h0V50.61l-3.38.44v.4c.75,0,1.44.16,1.44,1.45v4.28c0,1.25-.33,1.58-1.44,1.58v.4h4.81v-.4c-1.11,0-1.43-.33-1.43-1.58V54.74c0-1.13,1.22-3,2.34-3,.94,0,1.22.58,1.22,2.78v2.68c0,1.25-.32,1.58-1.44,1.58v.4H21v-.4C19.88,58.76,19.55,58.43,19.55,57.18Z"/>
    <path d="M31.54,49.14c-1.17,0-1.78,1.29-2.15,2a4.54,4.54,0,0,0-2.07-.51c-2.2,0-3.59,1.13-3.59,3a2.55,2.55,0,0,0,1.35,2.35c-.25.33-1.15,1.17-1.15,2.09a1.39,1.39,0,0,0,.61,1.08c-.46.36-1.21.91-1.21,1.74S24.44,63,27.3,63c3.09,0,4.91-1.67,4.91-3.15,0-1.71-1.49-2.16-2.89-2.16h-3c-.61,0-1-.17-1-.68a1.39,1.39,0,0,1,.38-.81,4.56,4.56,0,0,0,1.63.27c2.07,0,3.55-1.06,3.55-2.88a2.48,2.48,0,0,0-1-2.16c.15-.27.34-.68.7-.68.14,0,.24.1.37.19a1,1,0,0,0,.63.2,1,1,0,1,0,0-2Zm-2.7,10.24c.8,0,1.72.24,1.72,1s-1.32,1.85-3.16,1.85-2.63-1.11-2.63-1.87a2,2,0,0,1,.36-1Zm-1.52-3.53c-1.24,0-1.61-.89-1.61-2.26,0-.93.21-2.36,1.61-2.36,1.17,0,1.57,1.09,1.57,2.36S28.47,55.85,27.32,55.85Z"/>
    <path d="M38.89,50.61c-2.57,0-4,1.33-4,4.08,0,3,1.75,4.65,4.7,4.65a7.86,7.86,0,0,0,2.65-.47v-.66a5.2,5.2,0,0,1-1.76.31c-2.73,0-3.5-2.56-3.5-4.47H42.4C42.4,52.52,41.91,50.61,38.89,50.61ZM37,53.3a1.92,1.92,0,0,1,1.84-2.07c1.33,0,1.66.93,1.66,2.07Z"/>
    <path d="M50.85,50.61a2.88,2.88,0,0,0-2.61,2.11h0V50.61l-3.38.44v.4c.75,0,1.44.16,1.44,1.45v4.28c0,1.25-.33,1.58-1.44,1.58v.4h4.82v-.4c-1.11,0-1.44-.33-1.44-1.58v-2c0-1.87.86-3,1.46-3s.5.42,1.19.42a1,1,0,0,0,1-1A1,1,0,0,0,50.85,50.61Z"/>
    <path d="M59.41,54.92c-1.19-.87-3.4-1.33-3.4-2.51a1.29,1.29,0,0,1,1.42-1.18,1.91,1.91,0,0,1,1.9,1.83h.55l-.11-2.14a8.45,8.45,0,0,0-2.19-.31c-1.82,0-3.34.71-3.34,2.35,0,1,.45,1.49,1.39,2.11,1.15.74,3,1.09,3,2.27,0,.93-.9,1.38-1.75,1.38a2.11,2.11,0,0,1-2.17-2.14h-.55L54.3,59a12.66,12.66,0,0,0,2.67.32c2.21,0,3.45-1,3.45-2.47A2.36,2.36,0,0,0,59.41,54.92Z"/>
    <path d="M59.87,29.57c-1.35,0-1.88-.51-1.88-2V17.13c0-3.92-1.09-6.71-7.07-6.71-3,0-7.25,1.39-7.25,4.14a1.94,1.94,0,0,0,2.1,1.89,2,2,0,0,0,2-2.19c0-1.35.35-2.45,3.06-2.45,3.66,0,3.71,3.12,3.71,6.08v1.6c-3.32.29-11.53.29-11.53,6.41,0,2.74,2.23,4.76,5.24,4.76a7,7,0,0,0,6.2-3.07h.09c0,1.81.74,3.07,3.27,3.07.54,0,1,0,2.19-.13l.24-.27c.19-.25.37-.51.55-.76Z" class="cls-1"/>
    <polygon points="35.94 21.51 31.99 21.51 31.99 13.62 29.14 13.62 28.04 14.66 28.04 25.46 39.88 25.46 39.88 13.62 35.94 13.62 35.94 21.51" class="cls-1"/>
    <path d="M47,25.23c0-3.93,5.59-4.31,7.64-4.35v2.49c0,2.87-1.84,5.52-4.67,5.52C48.43,28.89,47,27.42,47,25.23Zm12.92,4.34,1-.07a19,19,0,0,0,3.33-10.8c0-8.14-5.63-14.95-14.27-14.95a21.09,21.09,0,0,0-5.85.9V9.87h-1v1h-4V6.58a44.62,44.62,0,0,0-10,7H32v7.9h3.94v-7.9h4V25.46H28V14.66c-3.93,3.85-5.46,7.2-5.46,10.05,0,6,7.94,12.64,21.12,12.64,7.3,0,12.39-2.48,15.66-6l.69-.81c-1.15.1-1.65.13-2.19.13-2.53,0-3.27-1.26-3.27-3.07H54.5a7,7,0,0,1-6.2,3.07c-3,0-5.24-2-5.24-4.76,0-6.12,8.21-6.12,11.53-6.41v-1.6c0-3-.05-6.08-3.71-6.08-2.71,0-3.06,1.1-3.06,2.45a2,2,0,0,1-2,2.19,1.94,1.94,0,0,1-2.1-1.89c0-2.75,4.24-4.14,7.25-4.14,6,0,7.07,2.79,7.07,6.71V27.59C58,29.06,58.52,29.57,59.87,29.57Z" class="cls-2"/>
    <rect width="3.95" height="9.87" x="40.1" class="cls-3"/>
</svg>
